# Blender v2.93.5 OBJ File: 'untitled.blend'
# www.blender.org
mtllib AlaIzquierda.mtl
o aca.001
v 0.536802 2.621449 -0.123842
v 0.537114 2.621968 -0.119992
v 0.540457 2.619969 -0.119992
v 0.540145 2.619447 -0.123842
v 0.229552 2.066336 -0.041730
v 0.232661 2.071537 -0.003245
v 0.196121 2.086342 -0.041730
v 0.199234 2.091543 -0.003245
v 0.927345 3.177670 0.141994
v 0.926527 3.176505 0.145621
v 0.929714 3.174268 0.145621
v 0.930532 3.175429 0.141994
v 0.569077 2.630172 -0.132950
v 0.560911 2.618543 -0.096675
v 0.537192 2.652559 -0.132950
v 0.529026 2.640933 -0.096675
v 2.053020 2.759111 0.310453
v 2.051656 2.755460 0.310453
v 0.937319 3.152268 0.165218
v 0.950931 3.188773 0.165218
v 0.207474 2.046872 -0.078617
v 0.095156 2.144801 -0.076369
v 0.111835 2.054262 -0.236939
v 0.132667 1.940040 -0.366644
v 0.256248 1.865119 -0.339528
v 0.275638 1.911384 -0.274632
v 0.216497 1.847237 -0.389849
v 1.071999 2.627391 -0.364825
v 1.360790 2.319763 -0.604639
v 1.565311 2.229064 -0.555495
v 0.751355 2.727705 -0.089939
v 0.742001 2.517660 -0.287349
v 0.968070 2.963386 0.065590
v 0.731255 2.874686 -0.000720
v 0.904596 3.190370 0.195926
v 0.390208 2.517415 -0.129366
v 0.443614 2.463486 -0.101619
v 0.437388 2.348843 -0.153989
v 0.436328 2.281426 -0.176220
v 0.721625 2.930901 -0.062016
v 0.899660 3.233499 0.138768
v 1.011031 3.086616 -0.041944
v 0.777629 2.869161 -0.195738
v 1.113153 2.722379 -0.452465
v 1.606460 2.324049 -0.643155
v 0.772183 2.632713 -0.456478
v 0.232447 1.979814 -0.192637
v 0.376801 2.054823 -0.391123
v 2.983228 1.862388 0.119050
v 2.628427 1.835716 -0.270230
v 2.326172 2.199010 -0.341211
v 2.242677 2.067548 -0.308469
v 3.269506 2.000170 0.687465
v 2.924165 2.120132 0.262700
v 2.960853 2.170258 0.438062
v 2.930137 2.024590 0.375045
v 0.210851 2.154074 -0.288915
v 0.271426 2.093066 -0.455239
v 0.364962 1.961440 -0.559040
v 1.585956 2.089731 -0.723140
v 1.816641 2.044437 -0.563264
v 1.857783 2.139421 -0.650935
v 1.732858 2.233147 -0.535290
v 1.952881 2.106254 -0.545576
v 2.286222 1.910399 -0.493611
v 1.861613 1.979081 -0.672624
v 1.209528 2.260439 -0.620932
v 1.622648 2.012560 -0.802973
v 1.297730 2.124336 -0.794168
v 1.030106 2.262585 -0.669161
v 1.217012 3.008661 0.148193
v 1.254597 3.090734 0.271462
v 1.526234 2.998360 0.336377
v 1.493504 2.863114 0.143739
v 1.190812 2.937824 0.053009
v 1.787947 2.929600 0.347469
v 1.764692 2.748073 0.186077
v 2.142616 2.764020 0.401935
v 2.142366 2.583370 0.273324
v 2.450493 2.617908 0.510450
v 2.434255 2.456177 0.344594
v 2.239868 2.469985 0.133945
v 2.634135 2.346384 0.269985
v 2.763182 2.336956 0.411102
v 2.896904 2.428956 0.776375
v 1.775398 2.653007 0.034753
v 2.450201 2.558856 0.261554
v 2.126798 2.720568 0.150405
v 1.829946 2.861462 0.109018
v 1.534969 2.956548 0.054096
v 1.550042 3.047691 0.316009
v 1.258283 3.102972 0.059633
v 1.228922 3.163036 0.205857
v 0.426472 2.431886 -0.413112
v 1.542441 3.064214 0.354003
v 1.231961 3.032657 -0.034896
v 0.527623 2.178105 -0.773297
v 1.473486 2.730993 -0.365012
v 0.514767 2.036797 -0.781054
v 0.802054 2.036224 -0.871951
v 0.513808 2.151510 -0.580044
v 0.686179 2.248350 -0.734010
v 0.282662 1.825162 -0.486711
v 0.389113 1.905525 -0.627879
v 0.219691 1.855368 -0.607530
v 0.241809 1.812259 -0.583686
v 0.848206 2.222363 -0.619171
v 0.900642 2.124141 -0.819858
v 1.234233 2.032531 -0.829497
v 0.889355 2.317312 -0.706788
v 1.250678 2.355423 -0.708588
v 1.962441 2.382052 -0.457378
v 1.857670 2.510589 -0.277593
v 1.874384 2.678795 -0.149232
v 2.169572 2.299586 -0.176177
v 2.421554 2.175217 -0.092935
v 1.859681 2.245973 -0.388945
v 2.241901 1.985919 -0.471439
v 2.690783 2.011706 -0.032430
v 1.429629 2.630582 -0.271742
v 1.783077 2.557723 -0.092619
v 1.478664 2.798090 -0.001659
v 2.237779 2.468570 0.135468
v 2.235773 2.360126 0.041882
v 2.540830 2.205189 0.145851
v 2.607061 2.285992 0.093247
v 2.181915 2.535519 -0.044675
v 1.799834 2.459996 -0.220081
v 3.044240 1.921288 0.310710
v 2.671420 2.052747 0.004851
v 1.526433 3.044492 0.374266
v 1.595361 3.025698 0.372271
v 0.455917 1.781484 -0.733375
v 1.519992 2.892171 -0.090468
vt -15.710700 17.595200
vt -15.710700 17.595200
vt -15.710700 17.595200
vt -15.710700 17.595200
vt -15.710700 17.595200
vt -15.710700 17.595200
vt -15.710700 17.595200
vt -15.710700 17.595200
vt -15.710700 17.595200
vt -15.710700 17.595200
vt -15.710700 17.595200
vt -15.710700 17.595200
vt -15.710700 17.595200
vt -15.710700 17.595200
vt -15.710700 17.595200
vt -15.710700 17.595200
vt -15.710700 17.595200
vt -15.710700 17.595200
vt -15.710700 17.595200
vt -15.710700 17.595200
vt -15.352000 17.576300
vt -15.471700 17.661200
vt -15.539400 17.635799
vt -15.221800 17.541800
vt -15.264100 17.633101
vt -15.256100 17.437700
vt -15.184900 17.501400
vt -15.213500 17.391100
vt -15.090600 17.617701
vt -15.120100 17.640200
vt -15.060100 17.775200
vt -15.156300 17.685600
vt -15.175200 17.709101
vt -15.146900 17.475800
vt -15.184900 17.501400
vt -15.213500 17.391100
vt -15.256100 17.437700
vt -15.221800 17.541800
vt -15.352000 17.576300
vt -15.539400 17.635799
vt -15.264100 17.633101
vt -15.091100 17.810301
vt -15.106100 17.841600
vt -15.166000 17.807501
vt -15.957800 17.404301
vt -15.871000 17.532700
vt -15.734600 17.526501
vt -15.734600 17.526501
vt -15.971900 17.167999
vt -15.885200 17.282499
vt -15.869200 17.234501
vt -15.885200 17.282499
vt -15.060100 17.775200
vt -15.115000 17.777000
vt -15.091100 17.810301
vt -15.166000 17.807501
vt -15.196200 17.858700
vt -15.568200 17.703300
vt -15.629200 17.657600
vt -15.629200 17.657600
vt -15.584800 17.613300
vt -15.659100 17.627800
vt -15.774600 17.624901
vt -15.654900 17.688101
vt -15.439900 17.686300
vt -15.583800 17.747700
vt -15.484300 17.748800
vt -15.392200 17.722799
vt -15.314400 17.380501
vt -15.297700 17.335199
vt -15.033400 17.746700
vt -15.402200 17.280800
vt -15.405500 17.369499
vt -15.321500 17.416800
vt -15.458100 17.275400
vt -15.487400 17.339899
vt -15.538200 17.226299
vt -15.576500 17.282101
vt -15.618700 17.159700
vt -15.657800 17.220100
vt -15.650400 17.324301
vt -15.750100 17.254999
vt -15.747300 17.152901
vt -15.721700 17.034500
vt -15.516700 17.389400
vt -15.657800 17.220100
vt -15.576500 17.282101
vt -15.487400 17.339899
vt -15.405500 17.369499
vt -15.402200 17.280800
vt -15.314400 17.380501
vt -15.297700 17.335199
vt -15.120100 17.640200
vt -15.175200 17.709101
vt -15.369800 17.276501
vt -15.321500 17.416800
vt -15.260000 17.808201
vt -15.441000 17.515800
vt -15.272900 17.860100
vt -15.359200 17.854300
vt -15.260000 17.808201
vt -15.312000 17.787100
vt -15.156500 17.890600
vt -15.207800 17.889400
vt -15.156500 17.890600
vt -15.111100 17.852600
vt -15.110200 17.878000
vt -15.151900 17.909800
vt -15.345900 17.740999
vt -15.384000 17.797501
vt -15.474500 17.788700
vt -15.345900 17.740999
vt -15.439900 17.686300
vt -15.613300 17.552401
vt -15.564300 17.490499
vt -15.539100 17.439501
vt -15.679600 17.470501
vt -15.766500 17.457399
vt -15.613300 17.552401
vt -15.660100 17.609699
vt -15.749600 17.587200
vt -15.857900 17.438601
vt -15.441000 17.515800
vt -15.539100 17.439501
vt -15.419200 17.418400
vt -15.650400 17.324301
vt -15.664200 17.410500
vt -15.780500 17.359699
vt -15.780500 17.359699
vt -15.664200 17.410500
vt -15.770500 17.436600
vt -15.564300 17.490499
vt -15.945800 17.297100
vt -15.845200 17.402399
vt -15.185700 17.361099
vt -15.279800 17.306801
vt -15.366500 17.259600
vt -15.369800 17.276501
vt -15.391700 17.259199
vt -15.414800 17.252100
vt -15.111100 17.852600
vt -15.220000 17.940100
vt -15.419200 17.418400
vn 0.5695 -0.4243 -0.7040
vn 0.5695 -0.4243 -0.7039
vn 0.6823 -0.2356 0.6920
vn 0.6824 -0.2356 0.6920
vn -0.6431 0.3014 -0.7040
vn -0.5301 0.4900 0.6919
vn -0.5302 0.4900 0.6919
vn 0.8313 -0.5557 0.0091
vn 0.4490 -0.5904 0.6707
vn 0.4489 -0.5904 0.6708
vn -0.7078 0.2219 0.6706
vn -0.7077 0.2218 0.6707
vn -0.8049 0.5933 0.0089
vn -0.1142 0.0426 0.9925
vn 0.1086 -0.6574 0.7456
vn 0.3927 -0.9194 0.0226
vn -0.3108 -0.6474 0.6959
vn 0.3361 -0.5793 0.7426
vn 0.4696 -0.5761 0.6690
vn -0.0310 -0.6362 0.7709
vn -0.4758 -0.0912 0.8748
vn -0.4441 0.2561 0.8586
vn -0.7286 0.5940 0.3410
vn 0.0638 -0.1267 0.9899
vn 0.4920 -0.3022 0.8164
vn 0.5699 -0.3455 0.7455
vn 0.6362 -0.4505 0.6262
vn -0.7503 0.6467 -0.1368
vn -0.3894 0.9210 -0.0092
vn -0.0146 0.7811 -0.6243
vn -0.4227 0.6857 -0.5926
vn 0.0039 0.6618 -0.7496
vn 0.2601 0.4593 -0.8493
vn -0.3382 0.6264 -0.7023
vn 0.7826 -0.4178 0.4616
vn 0.8560 -0.3236 0.4031
vn 0.8164 -0.4917 0.3027
vn 0.7853 -0.2293 0.5750
vn 0.3561 -0.8068 -0.4714
vn 0.5434 0.6507 -0.5303
vn -0.4780 -0.6801 0.5558
vn 0.6637 -0.1131 0.7393
vn 0.6688 0.5089 -0.5419
vn 0.0490 0.7781 0.6262
vn -0.5896 -0.5665 0.5756
vn -0.6828 0.5524 0.4782
vn -0.7658 0.5007 -0.4034
vn -0.7328 0.4844 -0.4779
vn -0.8137 0.1776 -0.5535
vn 0.6216 -0.3505 -0.7005
vn -0.4853 -0.5858 -0.6490
vn -0.2903 -0.5861 0.7564
vn 0.4242 0.5147 -0.7451
vn -0.1249 -0.5509 0.8251
vn 0.4887 0.6787 0.5482
vn 0.9069 -0.3396 0.2494
vn -0.0127 -0.7856 -0.6185
vn -0.0142 -0.7019 0.7121
vn 0.7943 -0.5535 -0.2501
vn -0.3658 -0.6604 -0.6558
vn 0.8829 -0.4129 -0.2235
vn -0.2915 -0.7132 0.6375
vn -0.3292 -0.0690 0.9417
vn -0.2509 -0.5377 0.8049
vn -0.3571 -0.7733 0.5239
vn -0.1766 -0.7845 0.5944
vn 0.1386 0.4863 0.8627
vn -0.4128 -0.6922 0.5919
vn 0.0558 0.5462 0.8357
vn -0.4437 -0.6968 0.5634
vn -0.0767 0.5661 0.8207
vn -0.4428 -0.7749 0.4510
vn -0.0472 -0.7320 -0.6796
vn 0.7251 0.5619 0.3980
vn 0.7252 -0.6327 -0.2716
vn 0.6536 -0.0747 0.7531
vn -0.3493 -0.9249 0.1502
vn 0.5201 0.6281 -0.5788
vn 0.4420 0.6154 -0.6526
vn 0.4443 0.6904 -0.5708
vn 0.3803 0.8475 -0.3703
vn 0.4210 0.9070 0.0106
vn 0.2819 0.8444 -0.4555
vn 0.1820 0.9645 0.1912
vn -0.6199 0.6297 -0.4681
vn 0.1810 0.8749 0.4491
vn 0.2479 0.7637 -0.5961
vn -0.4576 0.4234 -0.7818
vn 0.2863 0.6939 -0.6606
vn -0.3611 -0.7647 -0.5336
vn 0.7699 -0.4019 -0.4957
vn 0.6916 -0.6015 0.3998
vn 0.1641 0.4190 -0.8930
vn 0.4321 -0.8503 0.3004
vn 0.6899 0.6605 -0.2962
vn -0.7819 0.0743 -0.6189
vn -0.7384 0.3920 -0.5487
vn -0.3611 -0.9222 0.1382
vn -0.5223 -0.8387 -0.1543
vn 0.0657 -0.8552 0.5141
vn -0.3269 -0.5741 -0.7506
vn 0.8191 -0.4866 -0.3039
vn 0.1077 0.6475 -0.7544
vn 0.1718 0.5446 -0.8209
vn 0.4121 0.6029 -0.6832
vn 0.5504 0.6709 -0.4969
vn 0.4703 0.5466 -0.6928
vn 0.2837 -0.2426 0.9277
vn 0.0522 -0.3352 0.9407
vn -0.4318 -0.7048 0.5628
vn -0.0197 -0.7013 -0.7126
vn -0.0549 0.6256 0.7782
vn -0.2803 -0.7117 0.6441
vn -0.4192 -0.7429 0.5219
vn -0.3635 -0.7956 0.4845
vn -0.0652 0.3703 0.9266
vn -0.4965 -0.6908 0.5256
vn -0.5337 -0.6218 0.5732
vn 0.5296 0.6492 -0.5458
vn 0.5044 0.7758 -0.3790
vn -0.3904 -0.6972 0.6012
vn 0.4477 -0.8187 -0.3596
vn 0.0841 -0.6807 -0.7277
vn -0.1685 0.0837 0.9821
vn -0.0276 -0.2051 0.9783
vn 0.5304 -0.7892 0.3094
vn 0.6597 -0.3641 -0.6574
vn 0.3660 0.7683 -0.5251
usemtl None
s 1
f 5/1/1 4/2/2 3/3/3 6/4/4
f 7/5/5 1/6/5 4/2/2 5/1/1
f 2/7/6 8/8/7 6/4/4 3/3/3
f 1/6/5 7/5/5 8/8/7 2/7/6
f 13/9/8 12/10/8 11/11/9 14/12/10
f 10/13/11 16/14/12 14/12/10 11/11/9
f 9/15/13 15/16/13 16/14/12 10/13/11
f 17/17/14 20/18/14 19/19/14 18/20/14
f 28/21/15 29/22/16 30/23/17
f 28/21/15 31/24/18 32/25/19
f 28/21/15 33/26/20 31/24/18
f 34/27/21 31/24/18 33/26/20
f 34/27/21 33/26/20 35/28/22
f 34/27/21 36/29/23 37/30/24
f 21/31/25 38/32/26 37/30/24
f 21/31/25 39/33/27 38/32/26
f 34/27/21 40/34/28 36/29/23
f 40/35/28 41/36/29 42/37/30
f 40/35/28 42/37/30 43/38/31
f 44/39/32 43/38/31 42/37/30
f 44/39/32 45/40/33 29/22/16
f 44/39/32 46/41/34 43/38/31
f 47/42/35 26/43/36 48/44/37
f 49/45/38 50/46/39 51/47/40
f 49/45/38 52/48/41 50/46/39
f 53/49/42 54/50/43 55/51/44
f 53/49/42 55/51/44 56/52/45
f 22/53/46 57/54/47 23/55/48
f 57/54/47 58/56/49 23/55/48
f 23/55/48 58/56/49 59/57/50
f 37/30/24 31/24/18 34/27/21
f 37/30/24 38/32/26 31/24/18
f 38/32/26 39/33/27 32/25/19
f 38/32/26 32/25/19 31/24/18
f 35/28/22 40/34/28 34/27/21
f 39/33/27 21/31/25 47/42/35
f 39/33/27 47/42/35 48/44/37
f 59/57/50 48/44/37 26/43/36
f 60/58/51 29/22/16 45/40/33
f 60/58/51 30/23/17 29/22/16
f 60/58/51 61/59/52 30/23/17
f 60/58/51 45/40/33 62/60/53
f 63/61/54 30/23/17 61/59/52
f 62/60/53 63/61/54 64/62/55
f 63/61/54 61/59/52 64/62/55
f 64/62/55 61/59/52 65/63/56
f 64/62/55 65/63/56 62/60/53
f 65/63/56 61/59/52 66/64/57
f 65/63/56 66/64/57 62/60/53
f 66/64/57 60/58/51 62/60/53
f 66/64/57 61/59/52 60/58/51
f 67/65/58 29/22/16 28/21/15
f 67/65/58 28/21/15 32/25/19
f 68/66/59 29/22/16 67/65/58
f 68/66/59 67/65/58 69/67/60
f 32/25/19 70/68/61 67/65/58
f 67/65/58 70/68/61 69/67/60
f 71/69/62 35/28/22 33/26/20
f 71/69/62 72/70/63 35/28/22
f 37/30/24 36/29/23 22/71/46
f 37/30/24 22/71/46 21/31/25
f 72/70/63 71/69/62 73/72/64
f 74/73/65 73/72/64 71/69/62
f 33/26/20 28/21/15 75/74/66
f 74/73/65 71/69/62 75/74/66
f 71/69/62 33/26/20 75/74/66
f 76/75/67 73/72/64 74/73/65
f 76/75/67 74/73/65 77/76/68
f 78/77/69 76/75/67 77/76/68
f 78/77/69 77/76/68 79/78/70
f 80/79/71 78/77/69 79/78/70
f 80/79/71 79/78/70 81/80/72
f 81/80/72 79/78/70 82/81/73
f 81/80/72 82/81/73 83/82/74
f 81/80/72 83/82/74 84/83/75
f 85/84/76 80/79/71 81/80/72
f 81/80/72 84/83/75 85/84/76
f 79/78/70 86/85/77 82/81/73
f 79/78/70 77/76/68 86/85/77
f 87/86/78 84/83/75 83/82/74
f 87/86/78 78/77/69 80/79/71
f 82/81/73 87/86/78 83/82/74
f 85/84/76 87/86/78 80/79/71
f 87/86/78 85/84/76 84/83/75
f 82/81/73 88/87/79 87/86/78
f 87/86/78 88/87/79 78/77/69
f 86/85/77 88/87/79 82/81/73
f 78/77/69 88/87/79 89/88/80
f 78/77/69 89/88/80 76/75/67
f 86/85/77 89/88/80 88/87/79
f 90/89/81 76/75/67 89/88/80
f 90/89/81 91/90/82 76/75/67
f 90/89/81 92/91/83 91/90/82
f 42/37/30 93/92/84 92/91/83
f 93/92/84 91/90/82 92/91/83
f 42/37/30 41/36/29 93/92/84
f 36/93/23 40/35/28 43/38/31
f 36/93/23 43/38/31 46/41/34
f 36/93/23 57/54/47 22/53/46
f 36/93/23 94/94/85 57/54/47
f 36/93/23 46/41/34 94/94/85
f 94/94/85 58/56/49 57/54/47
f 93/92/84 95/95/86 91/90/82
f 90/89/81 96/96/87 92/91/83
f 92/91/83 96/96/87 42/37/30
f 42/37/30 96/96/87 44/39/32
f 94/94/85 97/97/88 58/56/49
f 45/40/33 44/39/32 98/98/89
f 63/61/54 45/40/33 98/98/89
f 58/56/49 99/99/90 59/57/50
f 99/99/90 58/56/49 97/97/88
f 100/100/91 99/99/90 97/97/88
f 101/101/92 48/44/37 59/57/50
f 100/100/91 101/101/92 99/99/90
f 101/101/92 59/57/50 99/99/90
f 39/33/27 48/44/37 101/101/92
f 102/102/93 101/101/92 100/100/91
f 102/102/93 97/97/88 94/94/85
f 102/102/93 39/33/27 101/101/92
f 102/102/93 100/100/91 97/97/88
f 59/57/50 26/43/36 103/103/94
f 59/57/50 103/103/94 104/104/95
f 105/105/96 59/57/50 104/104/95
f 59/57/50 24/106/97 23/55/48
f 105/105/96 24/106/97 59/57/50
f 27/107/98 24/106/97 105/105/96
f 27/107/98 106/108/99 103/103/94
f 27/107/98 105/105/96 106/108/99
f 107/109/100 32/25/19 39/33/27
f 39/33/27 102/102/93 107/109/100
f 107/109/100 70/68/61 32/25/19
f 107/109/100 102/102/93 108/110/101
f 109/111/102 70/68/61 107/109/100
f 109/111/102 107/109/100 108/110/101
f 109/111/102 110/112/103 70/68/61
f 94/94/85 110/112/103 102/102/93
f 110/112/103 46/41/34 70/68/61
f 110/112/103 108/110/101 102/102/93
f 109/111/102 108/110/101 110/112/103
f 110/112/103 94/94/85 46/41/34
f 111/113/104 44/39/32 29/22/16
f 46/41/34 111/113/104 70/68/61
f 68/66/59 69/67/60 111/113/104
f 68/66/59 111/113/104 29/22/16
f 111/113/104 46/41/34 44/39/32
f 111/113/104 69/67/60 70/68/61
f 63/61/54 98/98/89 112/114/105
f 112/114/105 98/98/89 113/115/106
f 114/116/107 113/115/106 98/98/89
f 51/47/40 112/114/105 115/117/108
f 113/115/106 115/117/108 112/114/105
f 114/116/107 115/117/108 113/115/106
f 52/48/41 116/118/109 115/117/108
f 51/47/40 115/117/108 116/118/109
f 52/48/41 115/117/108 117/119/110
f 51/47/40 64/120/55 112/114/105
f 64/120/55 52/48/41 117/119/110
f 51/47/40 118/121/111 64/120/55
f 50/46/39 118/121/111 51/47/40
f 50/46/39 52/48/41 118/121/111
f 64/120/55 118/121/111 52/48/41
f 52/48/41 119/122/112 116/118/109
f 51/47/40 119/122/112 49/45/38
f 51/47/40 116/118/109 119/122/112
f 52/48/41 49/45/38 119/122/112
f 30/23/17 120/123/113 28/21/15
f 63/61/54 120/123/113 30/23/17
f 63/61/54 117/119/110 120/123/113
f 121/124/114 86/85/77 122/125/115
f 121/124/114 122/125/115 120/123/113
f 123/126/116 86/85/77 121/124/114
f 121/124/114 115/117/108 124/127/117
f 123/126/116 121/124/114 124/127/117
f 123/126/116 124/127/117 125/128/118
f 56/52/45 83/82/74 125/128/118
f 56/52/45 55/51/44 83/82/74
f 83/82/74 55/51/44 54/50/43
f 123/126/116 125/128/118 83/82/74
f 83/82/74 54/50/43 126/129/119
f 123/126/116 83/82/74 126/129/119
f 127/130/120 115/117/108 114/116/107
f 123/126/116 126/129/119 127/130/120
f 86/85/77 123/126/116 127/130/120
f 124/127/117 115/117/108 116/131/109
f 124/127/117 116/131/109 125/128/118
f 116/131/109 115/117/108 127/130/120
f 116/131/109 127/130/120 126/129/119
f 121/124/114 128/132/121 115/117/108
f 128/132/121 120/123/113 117/119/110
f 117/119/110 115/117/108 128/132/121
f 129/133/122 53/49/42 56/52/45
f 54/50/43 53/49/42 129/133/122
f 129/133/122 130/134/123 54/50/43
f 56/52/45 130/134/123 129/133/122
f 35/28/22 41/135/29 40/34/28
f 93/136/84 41/135/29 35/28/22
f 93/136/84 35/28/22 72/70/63
f 72/70/63 95/137/86 93/136/84
f 72/70/63 73/72/64 131/138/124
f 72/70/63 131/138/124 95/137/86
f 131/138/124 73/72/64 132/139/125
f 95/137/86 131/138/124 132/139/125
f 91/140/82 73/72/64 76/75/67
f 27/107/98 103/103/94 25/141/126
f 25/141/126 103/103/94 26/43/36
f 133/142/127 105/105/96 104/104/95
f 106/108/99 105/105/96 133/142/127
f 133/142/127 104/104/95 103/103/94
f 106/108/99 133/142/127 103/103/94
f 117/119/110 63/61/54 64/120/55
f 64/120/55 63/61/54 112/114/105
f 98/98/89 44/39/32 96/96/87
f 120/123/113 75/74/66 28/21/15
f 122/125/115 86/85/77 77/76/68
f 122/125/115 74/73/65 75/74/66
f 122/125/115 77/76/68 74/73/65
f 120/123/113 122/125/115 75/74/66
f 120/123/113 128/132/121 121/124/114
f 125/128/118 116/131/109 130/134/123
f 126/129/119 130/134/123 116/131/109
f 125/128/118 130/134/123 56/52/45
f 126/129/119 54/50/43 130/134/123
f 134/143/128 89/88/80 86/85/77
f 98/98/89 96/96/87 134/143/128
f 134/143/128 90/89/81 89/88/80
f 134/143/128 96/96/87 90/89/81
f 98/98/89 134/143/128 114/116/107
