# Blender v2.93.5 OBJ File: 'untitled.blend'
# www.blender.org
mtllib BrazoDerecho.mtl
o aca.010
v -0.300631 1.895563 -0.183073
v -0.275276 2.044429 -0.038403
v -0.266993 2.045079 0.124049
v -0.651913 1.621113 0.151995
v -0.486450 1.718462 0.143498
v -0.576884 1.686009 0.095148
v -0.643331 1.478329 0.171896
v -0.534648 1.536099 0.188913
v -0.727052 1.522120 0.149170
v -0.679271 1.422063 0.183681
v -0.751589 1.466656 0.184737
v -0.705807 1.602342 0.089394
v -0.417764 1.563281 0.063661
v -0.538228 1.492101 0.109392
v -0.418430 1.639444 0.168120
v -0.761251 1.593981 0.035092
v -0.765334 1.496807 0.100996
v -0.539093 1.519548 -0.112571
v -0.698588 1.604723 -0.080935
v -0.565033 1.667768 -0.113311
v -0.454090 1.561793 -0.089160
v -0.803152 1.494665 0.077831
v -0.522761 1.472325 0.018436
v -0.576686 1.753308 -0.039186
v -0.557210 1.772749 -0.066469
v -0.542315 1.678041 -0.140871
v -0.528196 1.809099 -0.121824
v -0.479800 1.689659 -0.206733
v -0.430219 1.599794 -0.091376
v -0.401354 1.587124 -0.007336
v -0.650725 1.451894 0.142968
v -0.617527 1.408540 0.123893
v -0.531874 1.470209 0.089145
v -0.815199 1.384610 0.118926
v -0.812097 1.442045 0.147304
v -0.799252 1.473127 0.172441
v -0.332262 1.656049 -0.049841
v -0.308247 1.698897 -0.212542
v -0.345150 1.767162 -0.180692
v -0.499701 1.945977 0.110312
v -0.401584 2.020862 -0.036482
v -0.553956 1.936498 -0.013503
v -0.360317 2.038028 0.097396
v -0.563244 1.823693 0.099937
v -0.526252 1.798615 0.126293
v -0.466425 1.772430 0.174518
v -0.458134 1.906417 0.145473
v -0.417842 1.867204 0.203687
v -0.587135 1.816361 0.033362
v -0.558398 1.859197 -0.108963
v -0.595507 1.727723 0.047321
v -0.426491 1.722955 0.145469
v -0.676376 1.436860 0.170345
v -0.750116 1.481625 0.162393
v -0.360976 1.631441 -0.001305
v -0.310640 1.677325 0.131549
v -0.379961 1.698195 0.109349
v -0.787451 1.434039 0.030296
v -0.701580 1.370764 0.012397
v -0.822578 1.377566 0.049943
v -0.651181 1.372673 0.061744
v -0.587505 1.782700 -0.033388
v -0.403551 1.666201 -0.188508
v -0.669632 1.401636 0.138059
v -0.692101 1.364289 0.084980
v -0.669683 1.369420 0.152014
v -0.684523 1.331547 0.119124
v -0.743392 1.320439 0.103860
v -0.789672 1.478773 0.150557
v -0.800998 1.457095 0.109715
v -0.749220 1.309858 0.023692
v -0.337861 1.994280 0.135102
v -0.310355 1.923271 0.197387
v -0.321116 1.772348 0.196401
v -0.412423 1.859708 -0.186201
vt -15.542500 17.758900
vt -15.477000 17.712400
vt -15.498100 17.752600
vt -15.602800 17.744301
vt -15.556800 17.719101
vt -15.595600 17.778601
vt -15.548600 17.784599
vt -15.533900 17.663099
vt -15.575500 17.699499
vt -15.504600 17.685801
vt -15.549800 17.815001
vt -15.595800 17.804501
vt -15.516500 17.895700
vt -15.515400 17.850500
vt -15.467300 17.855000
vt -15.494500 17.902000
vt -15.590800 17.821699
vt -15.552700 17.918501
vt -15.455400 17.813299
vt -15.441900 17.817699
vt -15.455500 17.856701
vt -15.416500 17.826200
vt -15.425000 17.858801
vt -15.477400 17.898701
vt -15.482500 17.939400
vt -15.555600 17.960699
vt -15.608100 17.966101
vt -15.603300 17.951799
vt -15.555200 17.953100
vt -15.545300 17.642599
vt -15.601100 17.244699
vt -15.570200 17.202999
vt -15.544200 17.240900
vt -15.393300 17.742100
vt -15.329000 17.775801
vt -15.397400 17.782600
vt -15.331300 17.726200
vt -15.446200 17.754700
vt -15.451100 17.737499
vt -15.450600 17.704901
vt -15.401200 17.724199
vt -15.409500 17.696899
vt -15.448300 17.777800
vt -15.408400 17.811701
vt -15.484300 17.778700
vt -15.465100 17.681601
vt -15.615300 17.734900
vt -15.634800 17.792299
vt -15.644900 17.762699
vt -15.630000 17.755400
vt -15.619300 17.789000
vt -15.632400 17.811100
vt -15.518800 17.627300
vt -15.469600 17.635799
vt -15.475100 17.653799
vt -15.526000 17.600000
vt -15.591600 17.852800
vt -15.594100 17.895800
vt -15.608800 17.859100
vt -15.599000 17.922600
vt -15.449800 17.802000
vt -15.437700 17.895901
vt -15.423900 17.934999
vt -15.626000 17.947701
vt -15.616600 17.920200
vt -15.633900 17.966900
vt -15.653000 17.962799
vt -15.640500 17.938000
vt -15.634200 17.917400
vt -15.628700 17.891300
vt -15.626200 17.851101
vt -15.620900 17.806999
vt -15.629500 17.826900
vt -15.610300 17.823601
vt -15.608900 17.886600
vt -15.304900 17.709801
vt -15.343500 17.707199
vt -15.364100 17.674700
vt -15.367200 17.894400
vt -15.358400 17.841299
vt -15.317100 17.858700
vt -15.562200 17.171700
vt -15.286400 17.783501
vt -15.427000 17.651800
vn -0.4467 0.5499 0.7057
vn -0.2910 0.0525 0.9553
vn -0.5817 0.5875 0.5625
vn 0.1475 -0.3287 0.9328
vn 0.2528 -0.3611 0.8976
vn -0.5311 0.4111 0.7409
vn -0.6394 0.6027 0.4774
vn 0.6903 -0.7100 0.1390
vn 0.5769 -0.6075 0.5460
vn 0.5647 -0.1220 0.8162
vn -0.8595 0.5090 0.0460
vn -0.6245 0.6226 0.4715
vn 0.1771 -0.4860 -0.8558
vn -0.6180 0.2083 -0.7580
vn -0.4748 0.0749 -0.8769
vn 0.5307 -0.4975 -0.6861
vn -0.9298 0.3276 0.1673
vn 0.5988 -0.7888 -0.1389
vn -0.8643 0.2155 -0.4545
vn -0.8466 -0.0262 -0.5316
vn -0.6651 -0.3287 -0.6705
vn -0.6984 0.0195 -0.7155
vn -0.3385 -0.3532 -0.8722
vn 0.4095 -0.6654 -0.6241
vn 0.6789 -0.7216 -0.1356
vn 0.5543 -0.4610 0.6930
vn 0.4728 -0.6255 0.6206
vn 0.6919 -0.6139 0.3799
vn 0.5714 -0.7761 -0.2667
vn -0.1714 -0.1029 -0.9798
vn -0.8518 -0.2443 -0.4633
vn -0.5810 0.5885 0.5622
vn -0.3583 0.8632 -0.3558
vn -0.7550 0.6421 -0.1326
vn -0.3207 0.8650 0.3857
vn -0.7764 0.1492 0.6123
vn -0.5926 0.0464 0.8041
vn -0.4057 -0.2086 0.8899
vn -0.4550 0.3863 0.8023
vn -0.3554 0.2290 0.9062
vn -0.9683 0.2191 0.1201
vn -0.7306 0.2798 -0.6229
vn -0.8234 0.4361 0.3630
vn 0.1175 -0.3041 0.9453
vn 0.2195 0.7922 0.5694
vn 0.8292 0.2914 0.4770
vn 0.6376 0.0894 0.7651
vn -0.1018 0.7752 0.6235
vn -0.5110 0.8561 0.0771
vn 0.6990 -0.7010 0.1411
vn -0.3061 -0.7430 0.5952
vn 0.2884 -0.6380 0.7140
vn -0.7269 -0.0013 -0.6868
vn 0.1335 -0.6473 -0.7505
vn -0.8809 -0.2392 -0.4082
vn 0.4193 -0.9070 -0.0378
vn -0.9465 -0.0425 -0.3198
vn 0.3250 -0.5750 -0.7508
vn 0.8434 -0.3768 0.3830
vn 0.6242 -0.7719 -0.1205
vn 0.9860 -0.0604 -0.1552
vn 0.7299 -0.4051 -0.5505
vn 0.0147 -0.9980 -0.0620
vn -0.9745 -0.2139 0.0670
vn -0.5353 0.8435 0.0440
vn -0.9174 0.3643 -0.1599
vn -0.9289 0.3699 -0.0166
vn -0.0583 -0.8215 -0.5671
vn -0.2037 0.8633 0.4617
vn -0.2995 0.5460 0.7824
vn -0.2122 0.4258 0.8795
vn -0.2264 0.3662 -0.9026
vn -0.1596 0.4542 -0.8765
vn -0.1523 0.9192 -0.3630
vn -0.1094 -0.3923 0.9133
usemtl None
s 1
f 4/1/1 5/2/2 6/3/3
f 4/1/1 7/4/4 8/5/5
f 4/1/1 9/6/6 7/4/4
f 4/1/1 6/3/3 12/7/7
f 13/8/8 8/5/5 14/9/9
f 13/8/8 15/10/10 8/5/5
f 16/11/11 17/12/12 12/7/7
f 18/13/13 19/14/14 20/15/15
f 18/13/13 20/15/15 21/16/16
f 16/11/11 22/17/17 17/12/12
f 21/16/16 23/18/18 18/13/13
f 20/15/15 24/19/19 25/20/20
f 20/15/15 25/20/20 26/21/21
f 26/21/21 25/20/20 27/22/22
f 26/21/21 27/22/22 28/23/23
f 20/15/15 26/21/21 29/24/24
f 20/15/15 29/24/24 21/16/16
f 21/16/16 29/24/24 30/25/25
f 14/26/9 31/27/26 32/28/27
f 14/26/9 33/29/28 30/25/25
f 14/26/9 32/28/27 33/29/28
f 14/9/9 30/30/25 13/8/8
f 5/2/2 4/1/1 8/5/5
f 9/6/6 4/1/1 12/7/7
f 7/4/4 14/9/9 8/5/5
f 5/2/2 8/5/5 15/10/10
f 9/6/6 12/7/7 17/12/12
f 24/19/19 20/15/15 19/14/14
f 24/19/19 19/14/14 16/11/11
f 30/25/25 23/18/18 21/16/16
f 32/28/27 23/18/18 33/29/28
f 30/25/25 33/29/28 23/18/18
f 37/31/29 39/32/30 38/33/31
f 40/34/32 41/35/33 42/36/34
f 40/34/32 43/37/35 41/35/33
f 42/36/34 44/38/36 40/34/32
f 5/2/2 45/39/37 6/3/3
f 46/40/38 47/41/39 45/39/37
f 5/2/2 46/40/38 45/39/37
f 46/40/38 48/42/40 47/41/39
f 42/36/34 49/43/41 44/38/36
f 49/43/41 42/36/34 50/44/42
f 50/44/42 27/22/22 25/20/20
f 51/45/43 12/7/7 6/3/3
f 45/39/37 44/38/36 51/45/43
f 45/39/37 51/45/43 6/3/3
f 51/45/43 16/11/11 12/7/7
f 51/45/43 24/19/19 16/11/11
f 51/45/43 44/38/36 49/43/41
f 5/2/2 52/46/44 46/40/38
f 7/4/4 31/47/26 14/9/9
f 11/48/45 10/49/46 53/50/47
f 53/50/47 7/4/4 9/6/6
f 31/47/26 7/4/4 53/50/47
f 53/50/47 9/6/6 54/51/48
f 11/48/45 53/50/47 54/51/48
f 9/6/6 17/12/12 54/51/48
f 54/51/48 36/52/49 11/48/45
f 30/30/25 55/53/50 13/8/8
f 55/53/50 56/54/51 57/55/52
f 30/30/25 37/56/29 55/53/50
f 55/53/50 37/56/29 56/54/51
f 58/57/53 16/11/11 19/14/14
f 58/57/53 22/17/17 16/11/11
f 59/58/54 58/57/53 19/14/14
f 59/58/54 18/13/13 23/18/18
f 59/58/54 19/14/14 18/13/13
f 59/58/54 60/59/55 58/57/53
f 59/58/54 23/18/18 61/60/56
f 32/28/27 61/60/56 23/18/18
f 24/19/19 51/45/43 62/61/57
f 49/43/41 50/44/42 62/61/57
f 62/61/57 51/45/43 49/43/41
f 50/44/42 25/20/20 62/61/57
f 24/19/19 62/61/57 25/20/20
f 63/62/58 29/24/24 26/21/21
f 63/62/58 26/21/21 28/23/23
f 29/24/24 63/62/58 37/63/29
f 29/24/24 37/63/29 30/25/25
f 31/27/26 64/64/59 32/28/27
f 64/64/59 61/60/56 32/28/27
f 59/58/54 61/60/56 65/65/60
f 64/64/59 65/65/60 61/60/56
f 31/27/26 53/66/47 64/64/59
f 10/67/46 64/64/59 53/66/47
f 10/67/46 66/68/61 64/64/59
f 65/65/60 64/64/59 66/68/61
f 65/65/60 66/68/61 67/69/62
f 65/65/60 67/69/62 68/70/63
f 68/70/63 34/71/64 60/59/55
f 17/12/12 69/72/65 54/51/48
f 54/51/48 69/72/65 36/52/49
f 69/72/65 35/73/66 36/52/49
f 70/74/67 60/59/55 34/71/64
f 22/17/17 58/57/53 70/74/67
f 17/12/12 70/74/67 69/72/65
f 69/72/65 70/74/67 35/73/66
f 17/12/12 22/17/17 70/74/67
f 34/71/64 35/73/66 70/74/67
f 58/57/53 60/59/55 70/74/67
f 59/58/54 71/75/68 60/59/55
f 59/58/54 65/65/60 71/75/68
f 68/70/63 60/59/55 71/75/68
f 71/75/68 65/65/60 68/70/63
f 3/76/69 72/77/70 73/78/71
f 28/23/23 39/79/30 63/62/58
f 28/23/23 75/80/72 39/79/30
f 37/63/29 63/62/58 39/79/30
f 39/79/30 75/80/72 1/81/73
f 1/82/73 38/33/31 39/32/30
f 47/41/39 40/34/32 44/38/36
f 47/41/39 43/37/35 40/34/32
f 47/41/39 44/38/36 45/39/37
f 52/46/44 5/2/2 15/10/10
f 57/55/52 13/8/8 55/53/50
f 57/55/52 15/10/10 13/8/8
f 52/46/44 15/10/10 57/55/52
f 72/77/70 3/76/69 43/37/35
f 47/41/39 72/77/70 43/37/35
f 47/41/39 48/42/40 73/78/71
f 47/41/39 73/78/71 72/77/70
f 75/80/72 42/36/34 41/35/33
f 75/80/72 50/44/42 42/36/34
f 75/80/72 28/23/23 27/22/22
f 75/80/72 27/22/22 50/44/42
f 41/35/33 1/81/73 75/80/72
f 2/83/74 41/35/33 43/37/35
f 41/35/33 2/83/74 1/81/73
f 2/83/74 43/37/35 3/76/69
f 74/84/75 46/40/38 52/46/44
f 74/84/75 73/78/71 48/42/40
f 74/84/75 48/42/40 46/40/38
f 52/46/44 57/55/52 74/84/75
f 74/84/75 57/55/52 56/54/51
