# Blender v2.93.5 OBJ File: 'untitled.blend'
# www.blender.org
mtllib Cuello.mtl
o aca.008
v 0.000000 1.716121 0.317162
v 0.054182 1.777701 0.310691
v -0.054178 1.777701 0.310691
v -0.086074 2.143040 0.159849
v 0.089355 2.016448 1.062996
v 0.000008 2.018115 1.068789
v 0.090839 1.934289 0.839541
v -0.090827 1.934293 0.839545
v 0.135612 1.981134 0.954333
v -0.089343 2.016448 1.062996
v -0.135600 1.981138 0.954333
v 0.000004 1.877294 0.428615
v 0.074199 1.927732 0.386966
v 0.088139 1.947399 0.501466
v 0.000004 1.903304 0.499280
v 0.085003 1.889711 0.296162
v 0.095916 1.972610 0.374865
v 0.152536 2.005216 0.249551
v 0.130874 2.060605 0.340713
v 0.000004 2.227120 0.258874
v 0.056741 2.179304 0.315159
v 0.086082 2.143040 0.159849
v 0.000004 2.248007 0.089094
v 0.108363 2.020379 0.504411
v 0.109407 2.113400 0.494270
v 0.061900 2.180629 0.476804
v 0.000004 2.230167 0.417683
v 0.000004 2.264334 0.263078
v 0.063840 2.172132 0.620944
v 0.000004 2.260481 0.516434
v 0.000004 2.279884 0.415423
v 0.113058 2.099097 0.626672
v 0.065616 2.127055 0.760686
v 0.105998 2.056393 0.752037
v 0.076077 2.090678 0.847520
v 0.107035 2.022455 0.840445
v 0.090403 1.973459 0.731595
v 0.084387 1.883789 0.722899
v 0.086538 1.849150 0.836549
v 0.049904 1.802885 0.808810
v 0.050488 1.840551 0.709298
v 0.083663 1.911092 0.631429
v 0.000004 1.876098 0.612790
v 0.109809 2.011161 0.623083
v 0.000008 1.803808 0.790561
v 0.000004 1.823487 0.697754
v 0.000004 2.207110 0.105987
v -0.152532 2.005216 0.249551
v -0.095912 1.972610 0.374865
v -0.130867 2.060609 0.340713
v -0.084999 1.889711 0.296162
v -0.056734 2.179304 0.315159
v -0.108355 2.020379 0.504411
v -0.109396 2.113400 0.494270
v -0.061888 2.180633 0.476804
v -0.074191 1.927732 0.386966
v -0.063828 2.172136 0.620944
v -0.113046 2.099097 0.626672
v -0.065605 2.127055 0.760686
v -0.105987 2.056393 0.752037
v -0.076065 2.090678 0.847520
v -0.107023 2.022455 0.840445
v -0.090395 1.973459 0.731595
v -0.084376 1.883789 0.722899
v -0.086530 1.849150 0.836549
v -0.049892 1.802885 0.808810
v -0.050480 1.840551 0.709302
v -0.083655 1.911092 0.631429
v -0.088131 1.947399 0.501470
v -0.109801 2.011165 0.623087
v 0.000008 2.151791 0.846694
v 0.000004 2.230946 0.687695
v 0.000004 2.297116 0.550735
vt -15.765900 17.242800
vt -15.816800 17.216400
vt -15.784300 17.275101
vt -15.765900 17.242800
vt -15.791000 17.188200
vt -15.831800 17.173599
vt -15.836100 17.207300
vt -15.756200 17.198299
vt -15.781200 17.167801
vt -15.725700 17.151800
vt -15.761300 17.133900
vt -15.734700 17.054600
vt -15.753100 17.084400
vt -15.695200 17.092501
vt -15.679800 17.038401
vt -15.825700 17.145700
vt -15.817300 17.113600
vt -15.810400 17.084499
vt -15.788600 17.057100
vt -15.739400 17.036900
vt -15.861600 17.083300
vt -15.823300 17.047899
vt -15.790300 17.042000
vt -15.865200 17.114300
vt -15.912600 17.093800
vt -15.912000 17.122601
vt -15.943900 17.105101
vt -15.945100 17.131701
vt -15.909700 17.152599
vt -15.950200 17.159599
vt -15.912100 17.183399
vt -15.954800 17.187799
vt -15.948500 17.212000
vt -15.911300 17.205000
vt -15.878800 17.179899
vt -15.873900 17.210100
vt -15.869100 17.145599
vt -15.940500 17.227699
vt -15.907300 17.221800
vt -15.675200 17.050699
vt -15.695200 17.092501
vt -15.781200 17.167801
vt -15.761300 17.133900
vt -15.725700 17.151800
vt -15.756200 17.198299
vt -15.753100 17.084400
vt -15.825700 17.145700
vt -15.817300 17.113600
vt -15.810400 17.084499
vt -15.791000 17.188200
vt -15.861600 17.083300
vt -15.865200 17.114300
vt -15.912600 17.093800
vt -15.912000 17.122601
vt -15.943900 17.105101
vt -15.945100 17.131701
vt -15.909700 17.152599
vt -15.950200 17.159599
vt -15.912100 17.183399
vt -15.954800 17.187799
vt -15.948500 17.212000
vt -15.911300 17.205000
vt -15.878800 17.179899
vt -15.831800 17.173599
vt -15.869100 17.145599
vt -15.777800 17.524300
vt -15.788000 17.427401
vt -15.824900 17.429100
vt -15.736700 17.523100
vt -15.988800 17.886999
vt -15.946000 17.969700
vt -15.930200 17.922899
vt -15.957800 17.880100
vt -15.884000 17.053101
vt -15.944200 17.070400
vt -15.834100 17.035700
vt -15.777800 17.524300
vt -15.824900 17.429100
vt -15.988800 17.886999
vt -15.930200 17.922899
vt -15.946000 17.969700
vt -15.957800 17.880100
vn 0.6995 -0.4144 0.5822
vn 0.0000 -0.8390 0.5440
vn 0.0000 -0.5687 0.8225
vn -0.6995 -0.4144 0.5822
vn 0.8384 -0.4956 0.2268
vn 0.8142 -0.5799 -0.0269
vn 0.0000 -0.9981 0.0617
vn 0.9197 -0.3060 0.2457
vn 0.9214 -0.3578 0.1513
vn 0.9857 0.0445 0.1625
vn 0.9800 0.1734 0.0974
vn 0.0000 0.7981 -0.6024
vn 0.7953 0.6061 -0.0123
vn 0.8125 0.5817 -0.0386
vn 0.0000 0.6748 -0.7380
vn 0.9874 -0.1570 0.0174
vn 0.9410 0.3381 0.0110
vn 0.8086 0.5874 -0.0335
vn 0.0000 0.7338 -0.6794
vn 0.0000 0.8241 -0.5664
vn 0.8144 0.5690 0.1142
vn 0.0000 0.9883 -0.1525
vn 0.0000 0.7837 -0.6211
vn 0.9555 0.2864 0.0705
vn 0.7721 0.5972 0.2172
vn 0.9824 0.1648 0.0878
vn 0.7397 0.6362 0.2192
vn 0.9795 0.2005 -0.0187
vn 0.9881 -0.1535 0.0073
vn 0.9934 -0.1048 -0.0464
vn 0.9389 -0.3252 -0.1129
vn 0.9435 -0.3116 -0.1128
vn 0.5678 -0.7739 -0.2806
vn 0.5667 -0.7614 -0.3148
vn 0.8152 -0.5524 -0.1737
vn 0.0000 -0.9203 -0.3911
vn 0.9876 -0.1554 0.0215
vn 0.0000 -0.9493 -0.3142
vn 0.0000 -0.9249 -0.3801
vn 0.0000 -0.3818 -0.9242
vn -0.8125 0.5817 -0.0386
vn -0.9214 -0.3578 0.1514
vn -0.9800 0.1734 0.0974
vn -0.9857 0.0446 0.1625
vn -0.9197 -0.3060 0.2458
vn -0.7953 0.6061 -0.0123
vn -0.9874 -0.1570 0.0175
vn -0.9410 0.3381 0.0110
vn -0.8086 0.5874 -0.0335
vn -0.8384 -0.4956 0.2269
vn -0.8144 0.5690 0.1143
vn -0.9555 0.2864 0.0706
vn -0.7721 0.5972 0.2173
vn -0.9824 0.1648 0.0878
vn -0.7397 0.6362 0.2192
vn -0.9795 0.2005 -0.0187
vn -0.9881 -0.1535 0.0073
vn -0.9934 -0.1048 -0.0464
vn -0.9389 -0.3252 -0.1128
vn -0.9435 -0.3116 -0.1128
vn -0.5677 -0.7739 -0.2806
vn -0.5667 -0.7614 -0.3147
vn -0.8152 -0.5524 -0.1737
vn -0.8142 -0.5799 -0.0268
vn -0.9876 -0.1553 0.0216
vn 0.0000 0.9309 0.3652
vn 0.3164 0.9027 0.2915
vn 0.0000 0.9005 0.4347
vn 0.8261 0.5532 0.1069
vn 0.0000 0.9231 0.3845
vn 0.0000 0.9665 -0.2567
vn -0.3164 0.9027 0.2915
vn -0.8261 0.5533 0.1069
usemtl None
s 1
f 2/1/1 12/2/2 1/3/3
f 12/2/2 3/4/4 1/3/3
f 2/1/1 13/5/5 12/2/2
f 12/2/2 13/5/5 14/6/6
f 12/2/2 14/6/6 15/7/7
f 13/5/5 2/1/1 16/8/8
f 14/6/6 13/5/5 17/9/9
f 13/5/5 16/8/8 17/9/9
f 17/9/9 16/8/8 18/10/10
f 17/9/9 18/10/10 19/11/11
f 20/12/12 21/13/13 22/14/14
f 20/12/12 22/14/14 23/15/15
f 24/16/16 14/6/6 17/9/9
f 19/11/11 24/16/16 17/9/9
f 19/11/11 25/17/17 24/16/16
f 26/18/18 25/17/17 19/11/11
f 26/18/18 19/11/11 21/13/13
f 27/19/19 26/18/18 21/13/13
f 21/13/13 20/12/12 28/20/20
f 27/19/19 21/13/13 28/20/20
f 25/17/17 26/18/18 29/21/21
f 26/18/18 30/22/22 29/21/21
f 26/18/18 31/23/23 30/22/22
f 26/18/18 27/19/19 31/23/23
f 25/17/17 29/21/21 32/24/24
f 24/16/16 25/17/17 32/24/24
f 32/24/24 29/21/21 33/25/25
f 32/24/24 33/25/25 34/26/26
f 35/27/27 34/26/26 33/25/25
f 35/27/27 36/28/28 34/26/26
f 36/28/28 37/29/29 34/26/26
f 36/28/28 7/30/30 37/29/29
f 7/30/30 38/31/31 37/29/29
f 7/30/30 39/32/32 38/31/31
f 40/33/33 38/31/31 39/32/32
f 40/33/33 41/34/34 38/31/31
f 42/35/35 37/29/29 38/31/31
f 42/35/35 38/31/31 41/34/34
f 15/7/7 14/6/6 42/35/35
f 15/7/7 42/35/35 43/36/36
f 42/35/35 41/34/34 43/36/36
f 42/35/35 44/37/37 37/29/29
f 44/37/37 42/35/35 14/6/6
f 44/37/37 32/24/24 34/26/26
f 32/24/24 44/37/37 24/16/16
f 14/6/6 24/16/16 44/37/37
f 44/37/37 34/26/26 37/29/29
f 45/38/38 41/34/34 40/33/33
f 43/36/36 41/34/34 46/39/39
f 45/38/38 46/39/39 41/34/34
f 23/15/15 47/40/40 4/41/41
f 23/15/15 22/14/14 47/40/40
f 49/42/42 50/43/43 48/44/44
f 49/42/42 48/44/44 51/45/45
f 52/46/46 27/19/19 28/20/20
f 52/46/46 28/20/20 20/12/12
f 50/43/43 49/42/42 53/47/47
f 50/43/43 53/47/47 54/48/48
f 55/49/49 31/23/23 27/19/19
f 50/43/43 54/48/48 55/49/49
f 52/46/46 55/49/49 27/19/19
f 50/43/43 55/49/49 52/46/46
f 30/22/22 31/23/23 55/49/49
f 56/50/50 49/42/42 51/45/45
f 56/50/50 51/45/45 3/4/4
f 12/2/2 56/50/50 3/4/4
f 54/48/48 57/51/51 55/49/49
f 30/22/22 55/49/49 57/51/51
f 54/48/48 58/52/52 57/51/51
f 53/47/47 58/52/52 54/48/48
f 58/52/52 59/53/53 57/51/51
f 58/52/52 60/54/54 59/53/53
f 61/55/55 59/53/53 60/54/54
f 61/55/55 60/54/54 62/56/56
f 63/57/57 62/56/56 60/54/54
f 63/57/57 8/58/58 62/56/56
f 8/58/58 63/57/57 64/59/59
f 8/58/58 64/59/59 65/60/60
f 64/59/59 66/61/61 65/60/60
f 67/62/62 46/39/39 45/38/38
f 43/36/36 46/39/39 67/62/62
f 67/62/62 45/38/38 66/61/61
f 64/59/59 67/62/62 66/61/61
f 67/62/62 68/63/63 43/36/36
f 67/62/62 64/59/59 68/63/63
f 68/63/63 64/59/59 63/57/57
f 15/7/7 43/36/36 68/63/63
f 53/47/47 49/42/42 69/64/64
f 69/64/64 49/42/42 56/50/50
f 12/2/2 15/7/7 69/64/64
f 12/2/2 69/64/64 56/50/50
f 15/7/7 68/63/63 69/64/64
f 68/63/63 63/57/57 70/65/65
f 70/65/65 69/64/64 68/63/63
f 58/52/52 53/47/47 70/65/65
f 70/65/65 63/57/57 60/54/54
f 70/65/65 60/54/54 58/52/52
f 69/64/64 70/65/65 53/47/47
f 35/66/27 6/67/66 5/68/67
f 35/66/27 71/69/68 6/67/66
f 35/70/27 5/71/67 9/72/69
f 35/70/27 9/72/69 36/73/28
f 33/25/25 29/21/21 72/74/70
f 59/53/53 72/74/70 57/51/51
f 35/27/27 33/25/25 71/75/68
f 61/55/55 71/75/68 59/53/53
f 57/51/51 73/76/71 30/22/22
f 29/21/21 30/22/22 73/76/71
f 61/77/55 10/78/72 6/67/66
f 61/77/55 6/67/66 71/69/68
f 61/79/55 11/80/73 10/81/72
f 61/79/55 62/82/56 11/80/73
f 22/14/14 19/11/11 18/10/10
f 22/14/14 21/13/13 19/11/11
f 4/41/41 20/12/12 23/15/15
f 4/41/41 48/44/44 50/43/43
f 4/41/41 52/46/46 20/12/12
f 4/41/41 50/43/43 52/46/46
f 72/74/70 71/75/68 33/25/25
f 72/74/70 59/53/53 71/75/68
f 72/74/70 29/21/21 73/76/71
f 72/74/70 73/76/71 57/51/51
