# Blender v2.93.5 OBJ File: 'untitled.blend'
# www.blender.org
mtllib PieDerecho.mtl
o aca.016_aca.018
v -0.528247 0.271613 -0.605672
v -0.528348 0.270959 -0.601834
v -0.532197 0.271547 -0.601834
v -0.532100 0.272198 -0.605672
v -0.485488 0.693967 -0.550563
v -0.486482 0.687437 -0.512168
v -0.446972 0.688088 -0.550563
v -0.447970 0.681562 -0.512168
v -0.593902 -0.005934 -0.326461
v -0.593271 -0.003276 -0.323683
v -0.597062 -0.002377 -0.323683
v -0.597693 -0.005037 -0.326461
v -0.555523 0.249258 -0.603981
v -0.549231 0.275845 -0.576206
v -0.517611 0.240286 -0.603981
v -0.511319 0.266872 -0.576206
v -0.530222 0.271578 -0.603751
v -0.727905 0.192497 -0.356246
v -0.690312 0.253657 -0.439317
v -0.735377 0.140836 -0.386160
v -0.716455 0.147019 -0.303358
v -0.693082 0.196588 -0.331043
v -0.666683 0.269985 -0.340191
v -0.711452 0.239000 -0.371764
v -0.642957 0.339536 -0.508510
v -0.655420 0.166570 -0.341765
v -0.637152 0.232089 -0.346705
v -0.595231 0.259419 -0.316223
v -0.614274 0.181643 -0.316402
v -0.574106 0.147654 -0.318381
v -0.560233 0.221643 -0.320555
v -0.516247 0.249901 -0.309705
v -0.528009 0.168669 -0.310406
v -0.491881 0.141697 -0.317274
v -0.484113 0.213045 -0.330252
v -0.441272 0.239616 -0.329165
v -0.448013 0.157285 -0.323535
v -0.538898 0.101756 -0.285896
v -0.447841 0.085833 -0.296135
v -0.629114 0.120881 -0.292776
v -0.412878 0.135441 -0.344753
v -0.406407 0.195513 -0.358330
v -0.577414 0.105562 -0.347765
v -0.497792 0.097801 -0.345591
v -0.412972 0.098023 -0.381227
v -0.409984 0.215312 -0.411904
v -0.436025 0.198357 -0.472296
v -0.430258 0.209772 -0.566435
v -0.397166 0.263241 -0.521070
v -0.420561 0.300646 -0.476566
v -0.486684 0.309342 -0.429830
v -0.536526 0.315303 -0.429019
v -0.590049 0.327404 -0.454912
v -0.393815 0.692292 -0.683787
v -0.456179 0.771688 -0.619386
v -0.385349 0.727636 -0.620371
v -0.516870 0.711935 -0.691454
v -0.455037 0.727021 -0.705444
v -0.554899 0.640954 -0.706960
v -0.524397 0.749232 -0.631070
v -0.570284 0.654551 -0.636423
v -0.558324 0.598554 -0.525636
v -0.579553 0.456568 -0.611800
v -0.596357 0.467232 -0.535520
v -0.364490 0.638722 -0.635149
v -0.388100 0.609030 -0.705328
v -0.672889 0.300311 -0.542627
v -0.611290 0.314508 -0.620570
v -0.633314 0.236857 -0.578392
v -0.656382 0.235809 -0.501201
v -0.376509 0.543270 -0.622284
v -0.384979 0.454347 -0.583176
v -0.358685 0.477540 -0.620243
v -0.388739 0.473130 -0.657781
v -0.367825 0.385980 -0.634257
v -0.735042 0.043078 -0.333739
v -0.664825 0.121427 -0.361132
v -0.648637 0.016250 -0.327969
v -0.553746 -0.004967 -0.320442
v -0.459393 -0.022402 -0.328144
v -0.479430 0.633746 -0.486856
v -0.407221 0.650098 -0.499175
v -0.390056 0.733554 -0.532037
v -0.453007 0.770426 -0.541809
v -0.521179 0.751690 -0.530487
v -0.484557 0.538318 -0.662698
v -0.470516 0.630832 -0.723331
v -0.441409 0.533912 -0.692268
v -0.424956 0.451445 -0.629402
v -0.498680 0.445800 -0.606895
v -0.518585 0.302945 -0.602504
v -0.428684 0.434521 -0.602228
v -0.429218 0.289196 -0.609482
v -0.532762 0.224246 -0.559952
v -0.545167 0.225212 -0.479812
v -0.644959 0.154188 -0.395093
v -0.568313 0.146139 -0.389366
v -0.491211 0.127403 -0.385786
v -0.412228 0.432004 -0.523645
v -0.461855 0.432538 -0.464754
v -0.509713 0.438152 -0.461960
v -0.555780 0.450954 -0.491067
v -0.493822 0.549570 -0.491757
v -0.535676 0.671475 -0.509398
v -0.407019 0.581470 -0.513730
vt -15.710700 17.595200
vt -15.710700 17.595200
vt -15.710700 17.595200
vt -15.710700 17.595200
vt -15.710700 17.595200
vt -15.710700 17.595200
vt -15.710700 17.595200
vt -15.710700 17.595200
vt -15.710700 17.595200
vt -15.710700 17.595200
vt -15.710700 17.595200
vt -15.710700 17.595200
vt -15.710700 17.595200
vt -15.710700 17.595200
vt -15.710700 17.595200
vt -15.710700 17.595200
vt -15.710700 17.595200
vt -15.459700 17.923800
vt -15.388900 17.947901
vt -15.464700 17.957001
vt -15.495800 17.913601
vt -15.472700 17.901199
vt -15.426700 17.884701
vt -15.433800 17.914400
vt -15.326900 17.915400
vt -15.480100 17.878901
vt -15.438800 17.867800
vt -15.429100 17.840500
vt -15.475300 17.847799
vt -15.488900 17.817900
vt -15.440500 17.819000
vt -15.425000 17.798401
vt -15.474700 17.791100
vt -15.479000 17.763700
vt -15.432100 17.775299
vt -15.416900 17.761200
vt -15.466600 17.741699
vt -15.510400 17.786400
vt -15.496300 17.724800
vt -15.509700 17.848801
vt -15.455400 17.717400
vt -15.423800 17.731100
vt -15.521400 17.815800
vt -15.509300 17.754299
vt -15.455300 17.690201
vt -15.387700 17.702000
vt -15.395200 17.665701
vt -15.320800 17.654800
vt -15.332000 17.695999
vt -15.330700 17.730900
vt -15.346300 17.782700
vt -15.350000 17.821699
vt -15.343300 17.865700
vt -15.051200 17.722200
vt -15.015600 17.785101
vt -15.057900 17.763901
vt -15.061400 17.941200
vt -15.027600 17.882200
vt -15.021800 17.940800
vt -15.105500 17.950899
vt -15.064200 17.900299
vt -15.119200 17.910700
vt -15.174800 17.865900
vt -15.228800 17.940100
vt -15.246900 17.895800
vt -15.096100 17.748400
vt -15.079800 17.707199
vt -15.336100 17.947100
vt -15.274700 17.965401
vt -15.320500 17.990700
vt -15.388000 17.983601
vt -15.144700 17.717501
vt -15.206400 17.704901
vt -15.175200 17.694599
vt -15.156100 17.673401
vt -15.191400 17.653700
vt -15.543800 17.949301
vt -15.514200 17.885401
vt -15.573200 17.854200
vt -15.575100 17.780001
vt -15.545100 17.684200
vt -15.105800 17.414600
vt -15.103900 17.327101
vt -15.069200 17.370199
vt -15.068400 17.324100
vt -15.094800 17.293501
vt -15.069100 17.283400
vt -15.039100 17.291800
vt -15.032400 17.327700
vt -15.049100 17.362700
vt -15.023500 17.388100
vt -15.038000 17.404499
vt -15.069100 17.415501
vt -15.069700 17.454000
vt -15.109600 17.452999
vt -15.037500 17.417200
vt -15.006600 17.422899
vt -15.032700 17.455299
vt -15.070400 17.492500
vt -15.027900 17.493500
vt -15.076800 17.545401
vt -15.029900 17.549601
vt -15.113400 17.491400
vt -15.124000 17.539900
vt -15.112600 17.589701
vt -15.145800 17.593700
vt -15.118700 17.611000
vt -15.081600 17.622000
vt -15.080400 17.590300
vt -15.047500 17.592501
vt -15.048000 17.619400
vt -15.014400 17.594601
vt -15.147700 17.645901
vt -15.109000 17.658100
vt -15.067300 17.664700
vt -15.009900 17.656500
vt -15.247800 17.690001
vt -15.245500 17.738300
vt -15.284300 17.672400
vt -15.227200 17.663900
vt -15.267800 17.785801
vt -15.272700 17.819700
vt -15.264200 17.857201
vt -15.205400 17.823500
vt -15.136700 17.845900
vt -15.087200 17.847401
vt -15.157600 17.823999
vt -15.139500 17.801701
vt -15.169400 17.780100
vt -15.044400 17.837500
vt -15.082600 17.808300
vt -15.040900 17.825100
vt -15.007100 17.727301
vn -0.6884 0.1682 -0.7055
vn -0.6885 0.1682 -0.7054
vn -0.9938 0.1107 -0.0068
vn 0.7073 -0.0446 -0.7055
vn 0.7072 -0.0446 -0.7055
vn 0.9816 -0.1906 -0.0069
vn -0.1643 -0.6937 0.7013
vn 0.1642 0.6937 -0.7012
vn 0.4653 0.1939 -0.8636
vn -0.3291 0.3819 -0.8636
vn -0.1972 0.9390 -0.2816
vn 0.5972 0.7510 -0.2815
vn -0.9120 0.3204 0.2559
vn -0.9340 0.1969 -0.2980
vn -0.7936 -0.3291 -0.5117
vn -0.2828 0.0238 0.9589
vn -0.1127 0.3234 0.9395
vn -0.0845 0.6158 0.7833
vn -0.8657 0.4743 0.1600
vn -0.7492 0.5420 0.3807
vn -0.1762 0.0605 0.9825
vn -0.1887 0.3752 0.9075
vn -0.1061 0.5740 0.8119
vn -0.2494 0.1868 0.9502
vn -0.0891 -0.0396 0.9952
vn -0.0458 0.2860 0.9571
vn 0.1303 0.5478 0.8264
vn 0.0071 0.1117 0.9937
vn 0.1648 0.0042 0.9863
vn 0.3030 0.4023 0.8639
vn 0.1993 0.6596 0.7247
vn 0.3364 0.1531 0.9291
vn -0.0332 -0.1557 0.9872
vn 0.2112 -0.1511 0.9657
vn -0.1886 -0.0750 0.9792
vn 0.9022 -0.0320 0.4300
vn 0.9452 0.1064 0.3087
vn -0.1351 -0.9098 -0.3925
vn -0.2060 -0.9334 -0.2938
vn 0.6863 -0.5706 -0.4509
vn 0.9932 -0.0557 -0.1021
vn 0.3389 -0.8680 -0.3628
vn 0.3933 -0.7644 -0.5108
vn 0.9924 -0.1080 -0.0582
vn 0.8149 0.2878 0.5031
vn 0.3799 0.5214 0.7641
vn -0.0489 0.6623 0.7476
vn -0.3053 0.6944 0.6516
vn 0.6825 0.3940 -0.6155
vn 0.1161 0.9681 -0.2221
vn 0.8221 0.5517 -0.1403
vn -0.4666 0.5577 -0.6865
vn 0.1253 0.6110 -0.7816
vn -0.6465 0.0402 -0.7618
vn -0.6277 0.7492 -0.2112
vn -0.9560 0.2920 -0.0273
vn -0.7898 0.1881 0.5838
vn -0.6248 -0.0298 -0.7802
vn -0.9126 0.2876 0.2906
vn 0.9975 0.0704 -0.0037
vn 0.6423 -0.0497 -0.7649
vn -0.9556 0.1102 -0.2732
vn -0.3460 -0.1050 -0.9323
vn -0.4283 -0.7005 -0.5708
vn -0.4908 -0.7804 -0.3874
vn 0.9994 -0.0156 0.0311
vn 0.7729 -0.4717 0.4243
vn 0.9932 0.1148 0.0198
vn 0.3664 -0.2926 -0.8832
vn 0.2830 -0.9457 -0.1599
vn -0.2986 -0.9402 0.1640
vn -0.0760 -0.9275 -0.3659
vn -0.2357 -0.9700 0.0590
vn -0.1417 -0.9886 0.0511
vn -0.0499 -0.9950 0.0862
vn -0.2881 -0.4959 -0.8191
vn -0.0424 -0.0853 -0.9954
vn -0.1877 -0.4541 -0.8710
vn -0.2861 -0.7410 -0.6075
vn -0.0269 -0.3108 -0.9501
vn 0.0215 -0.2411 -0.9702
vn 0.4766 -0.5859 -0.6554
vn 0.4797 -0.1937 -0.8558
vn -0.0882 -0.8701 -0.4849
vn -0.1072 -0.9205 -0.3757
vn 0.0157 -0.7527 -0.6582
vn -0.0717 -0.7328 -0.6767
vn -0.1879 -0.7401 -0.6457
vn 0.9366 -0.0662 0.3441
vn 0.4278 0.1796 0.8859
vn -0.1736 0.2967 0.9391
vn -0.5330 0.3017 0.7904
vn -0.1157 0.1395 0.9834
vn -0.8400 0.1638 0.5173
vn -0.7594 0.6500 0.0270
vn -0.0940 -0.0418 0.9947
vn 0.7815 -0.1064 0.6147
vn 0.7434 -0.0438 0.6673
vn 0.1332 0.9910 -0.0099
vn 0.9195 0.3901 0.0477
usemtl None
s 1
f 5/1/1 4/2/2 3/3/3 6/4/3
f 7/5/4 1/6/5 4/2/2 5/1/1
f 1/6/5 7/5/4 8/7/6 2/8/6
f 9/9/7 10/10/7 11/11/7 12/12/7
f 17/13/8 15/14/9 13/15/10
f 17/13/8 13/15/10 14/16/11
f 17/13/8 14/16/11 16/17/12
f 17/13/8 16/17/12 15/14/9
f 18/18/13 19/19/14 20/20/15
f 21/21/16 18/18/13 20/20/15
f 22/22/17 18/18/13 21/21/16
f 23/23/18 18/18/13 22/22/17
f 18/18/13 23/23/18 24/24/19
f 24/24/19 19/19/14 18/18/13
f 23/23/18 25/25/20 24/24/19
f 26/26/21 23/23/18 22/22/17
f 26/26/21 22/22/17 21/21/16
f 23/23/18 26/26/21 27/27/22
f 26/26/21 28/28/23 27/27/22
f 28/28/23 26/26/21 29/29/24
f 30/30/25 28/28/23 29/29/24
f 28/28/23 30/30/25 31/31/26
f 30/30/25 32/32/27 31/31/26
f 32/32/27 30/30/25 33/33/28
f 34/34/29 32/32/27 33/33/28
f 32/32/27 34/34/29 35/35/30
f 34/34/29 36/36/31 35/35/30
f 36/36/31 34/34/29 37/37/32
f 34/34/29 33/33/28 38/38/33
f 33/33/28 30/30/25 38/38/33
f 37/37/32 34/34/29 39/39/34
f 30/30/25 29/29/24 40/40/35
f 29/29/24 26/26/21 40/40/35
f 41/41/36 37/37/32 39/39/34
f 41/41/36 36/36/31 37/37/32
f 36/36/31 41/41/36 42/42/37
f 30/30/25 40/40/35 43/43/38
f 38/38/33 30/30/25 43/43/38
f 39/39/34 34/34/29 44/44/39
f 34/34/29 38/38/33 44/44/39
f 41/41/36 39/39/34 45/45/40
f 45/45/40 46/46/41 41/41/36
f 41/41/36 46/46/41 42/42/37
f 45/45/40 47/47/42 46/46/41
f 48/48/43 46/46/41 47/47/42
f 46/46/41 48/48/43 49/49/44
f 42/42/37 46/46/41 50/50/45
f 46/46/41 49/49/44 50/50/45
f 35/35/30 50/50/45 51/51/46
f 35/35/30 51/51/46 32/32/27
f 32/32/27 51/51/46 52/52/47
f 32/32/27 52/52/47 31/31/26
f 27/27/22 53/53/48 23/23/18
f 23/23/18 53/53/48 25/25/20
f 28/28/23 53/53/48 27/27/22
f 54/54/49 55/55/50 56/56/51
f 57/57/52 55/58/50 58/59/53
f 59/60/54 60/61/55 57/57/52
f 61/62/56 62/63/57 60/61/55
f 61/62/56 59/60/54 63/64/58
f 61/62/56 63/64/58 64/65/59
f 65/66/60 54/54/49 56/56/51
f 54/54/49 65/66/60 66/67/61
f 63/64/58 67/68/62 64/65/59
f 63/64/58 68/69/63 67/68/62
f 69/70/64 19/19/14 67/68/62
f 20/20/15 19/19/14 70/71/65
f 19/19/14 69/70/64 70/71/65
f 71/72/66 66/67/61 65/66/60
f 71/72/66 72/73/67 73/74/68
f 73/74/68 74/75/69 71/72/66
f 71/72/66 74/75/69 66/67/61
f 72/73/67 75/76/70 73/74/68
f 73/74/68 75/76/70 74/75/69
f 21/21/16 20/20/15 76/77/71
f 26/26/21 21/21/16 77/78/72
f 77/78/72 21/21/16 76/77/71
f 40/40/35 26/26/21 77/78/72
f 40/40/35 77/78/72 78/79/73
f 43/43/38 40/40/35 78/79/73
f 38/38/33 43/43/38 79/80/74
f 44/44/39 38/38/33 79/80/74
f 45/45/40 39/39/34 80/81/75
f 39/39/34 44/44/39 80/81/75
f 63/82/58 59/83/54 86/84/76
f 86/84/76 59/83/54 87/85/77
f 57/86/52 87/85/77 59/83/54
f 87/85/77 57/86/52 58/87/53
f 54/88/49 87/85/77 58/87/53
f 87/85/77 54/88/49 66/89/61
f 88/90/78 86/84/76 87/85/77
f 66/89/61 88/90/78 87/85/77
f 66/89/61 74/91/69 88/90/78
f 88/90/78 89/92/79 86/84/76
f 88/90/78 74/91/69 89/92/79
f 89/92/79 90/93/80 86/84/76
f 63/82/58 86/84/76 90/93/80
f 91/94/81 63/82/58 90/93/80
f 63/82/58 91/94/81 68/95/63
f 92/96/82 91/94/81 90/93/80
f 90/93/80 89/92/79 92/96/82
f 74/91/69 75/97/70 89/92/79
f 91/94/81 92/96/82 93/98/83
f 93/98/83 94/99/84 91/94/81
f 94/99/84 68/95/63 91/94/81
f 94/99/84 93/98/83 48/100/43
f 48/100/43 95/101/85 94/99/84
f 95/101/85 48/100/43 47/102/42
f 95/101/85 69/103/64 94/99/84
f 68/95/63 94/99/84 69/103/64
f 69/103/64 95/101/85 70/104/65
f 96/105/86 70/104/65 95/101/85
f 20/106/15 70/104/65 96/105/86
f 20/106/15 96/105/86 77/107/72
f 96/105/86 43/108/38 77/107/72
f 43/108/38 96/105/86 97/109/87
f 96/105/86 95/101/85 97/109/87
f 97/109/87 95/101/85 98/110/88
f 98/110/88 95/101/85 47/102/42
f 44/111/39 97/109/87 98/110/88
f 97/109/87 44/111/39 43/108/38
f 98/110/88 47/102/42 45/112/40
f 44/111/39 98/110/88 45/112/40
f 20/106/15 77/107/72 76/113/71
f 77/107/72 43/108/38 78/114/73
f 43/108/38 44/111/39 79/115/74
f 44/111/39 45/112/40 80/116/75
f 92/117/82 72/73/67 99/118/89
f 92/117/82 49/49/44 93/119/83
f 93/119/83 49/49/44 48/48/43
f 89/120/79 75/76/70 72/73/67
f 72/73/67 92/117/82 89/120/79
f 25/25/20 19/19/14 24/24/19
f 50/50/45 36/36/31 42/42/37
f 50/50/45 35/35/30 36/36/31
f 52/52/47 28/28/23 31/31/26
f 52/52/47 53/53/48 28/28/23
f 55/58/50 57/57/52 60/61/55
f 60/61/55 59/60/54 61/62/56
f 64/65/59 62/63/57 61/62/56
f 64/65/59 67/68/62 25/25/20
f 25/25/20 67/68/62 19/19/14
f 67/68/62 68/69/63 69/70/64
f 99/118/89 49/49/44 92/117/82
f 99/118/89 50/50/45 49/49/44
f 50/50/45 100/121/90 51/51/46
f 100/121/90 50/50/45 99/118/89
f 51/51/46 101/122/91 52/52/47
f 101/122/91 51/51/46 100/121/90
f 101/122/91 53/53/48 52/52/47
f 102/123/92 25/25/20 53/53/48
f 53/53/48 101/122/91 102/123/92
f 102/123/92 62/63/57 64/65/59
f 25/25/20 102/123/92 64/65/59
f 100/121/90 103/124/93 101/122/91
f 103/124/93 102/123/92 101/122/91
f 103/124/93 62/63/57 102/123/92
f 103/124/93 104/125/94 62/63/57
f 62/63/57 85/126/95 60/61/55
f 85/126/95 62/63/57 104/125/94
f 104/125/94 103/124/93 81/127/96
f 103/124/93 82/128/97 81/127/96
f 105/129/98 71/72/66 65/66/60
f 105/129/98 72/73/67 71/72/66
f 99/118/89 72/73/67 105/129/98
f 105/129/98 65/66/60 56/56/51
f 105/129/98 100/121/90 99/118/89
f 105/129/98 103/124/93 100/121/90
f 82/128/97 103/124/93 105/129/98
f 84/130/99 60/61/55 85/126/95
f 60/61/55 84/130/99 55/58/50
f 105/129/98 83/131/100 82/128/97
f 83/131/100 105/129/98 56/56/51
f 56/56/51 84/132/99 83/131/100
f 84/132/99 56/56/51 55/55/50
f 55/55/50 54/54/49 58/133/53
