# Blender v2.93.5 OBJ File: 'untitled.blend'
# www.blender.org
mtllib AntebrazoDerecho.mtl
o aca.011
v -0.617227 1.370063 0.518269
v -0.569860 1.394019 0.509827
v -0.618459 1.502273 0.528878
v -0.688014 1.477347 0.542460
v -0.571858 1.451949 0.510863
v -0.710852 1.498970 0.248351
v -0.679271 1.422063 0.183681
v -0.751589 1.466656 0.184737
v -0.622705 1.426652 0.235100
v -0.688450 1.376631 0.419806
v -0.744716 1.274186 0.263646
v -0.667529 1.282621 0.248986
v -0.838138 1.343850 0.284104
v -0.644940 1.373292 0.409937
v -0.658720 1.339175 0.245035
v -0.637249 1.374453 0.480435
v -0.690749 1.410149 0.495049
v -0.727893 1.407784 0.425509
v -0.690262 1.471218 0.485251
v -0.713805 1.461829 0.412906
v -0.664061 1.479606 0.398417
v -0.639064 1.483315 0.469760
v -0.621622 1.392807 0.402196
v -0.598016 1.443732 0.462428
v -0.605847 1.391160 0.467399
v -0.613066 1.443506 0.392062
v -0.787179 1.433801 0.261336
v -0.840924 1.429036 0.276554
v -0.815199 1.384610 0.118926
v -0.627700 1.364491 0.235174
v -0.812097 1.442045 0.147304
v -0.799252 1.473127 0.172441
v -0.762536 1.500762 0.256984
v -0.688999 1.412408 0.538715
v -0.669683 1.369420 0.152014
v -0.684523 1.331547 0.119124
v -0.743392 1.320439 0.103860
vt -15.668700 17.791100
vt -15.644900 17.762699
vt -15.634800 17.792299
vt -15.673000 17.758400
vt -15.745800 17.865999
vt -15.680400 17.880501
vt -15.680300 17.900999
vt -15.681800 17.852800
vt -15.742500 17.885700
vt -15.682800 17.921499
vt -15.781500 17.867500
vt -15.776900 17.843901
vt -15.744900 17.843300
vt -15.771600 17.810699
vt -15.739400 17.813299
vt -15.733900 17.789000
vt -15.768500 17.789499
vt -15.735400 17.733500
vt -15.764700 17.756599
vt -15.763300 17.735500
vt -15.734300 17.759899
vt -15.733400 17.716400
vt -15.763700 17.718599
vt -15.675600 17.823400
vt -15.678900 17.836700
vt -15.626200 17.851101
vt -15.672400 17.726200
vt -15.674800 17.739300
vt -15.629500 17.826900
vt -15.632400 17.811100
vt -15.668900 17.801300
vt -15.640500 17.938000
vt -15.653000 17.962799
vt -15.634200 17.917400
vt -15.628700 17.891300
vt -15.794400 17.839199
vt -15.792100 17.816299
vt -15.793300 17.786100
vt -15.787100 17.754200
vt -15.783500 17.736500
vt -15.777000 17.723801
vt -15.800500 17.868299
vn 0.2917 0.9186 -0.2665
vn 0.7107 0.3889 -0.5862
vn 0.2510 0.8345 -0.4904
vn 0.8505 0.3383 -0.4028
vn -0.2799 -0.8619 0.4227
vn -0.2422 -0.9607 0.1353
vn 0.6135 -0.7895 -0.0193
vn -0.8456 -0.4722 0.2487
vn 0.3730 -0.9189 0.1282
vn 0.9058 -0.3785 -0.1905
vn -0.0570 -0.9979 0.0297
vn -0.8381 -0.4817 0.2560
vn -0.7816 -0.2352 0.5777
vn -0.7297 0.6763 0.1007
vn -0.6274 0.7513 0.2045
vn 0.1186 0.9922 -0.0370
vn 0.1962 0.9574 -0.2116
vn 0.8639 -0.4963 -0.0853
vn 0.8613 0.3234 -0.3919
vn 0.7060 -0.6250 -0.3330
vn 0.9131 0.3775 -0.1541
vn -0.5039 0.8436 0.1856
vn -0.8065 0.5656 0.1720
vn -0.8864 -0.4001 -0.2327
vn 0.7500 -0.4954 -0.4382
vn -0.9478 0.3152 -0.0473
vn -0.8181 0.5684 0.0871
vn -0.5036 0.8518 0.1439
vn 0.9900 -0.0307 -0.1375
vn 0.5758 -0.7602 -0.3008
vn -0.2809 -0.9212 -0.2690
vn -0.9020 -0.4252 0.0739
vn -0.7998 0.5971 -0.0618
vn 0.1274 0.9307 -0.3428
vn 0.7732 0.4089 -0.4848
vn 0.7411 -0.4419 -0.5054
vn 0.0176 -0.9936 -0.1112
usemtl None
s 1
f 6/1/1 7/2/2 8/3/3
f 6/1/1 9/4/4 7/2/2
f 10/5/5 11/6/6 12/7/7
f 13/8/8 11/6/6 10/5/5
f 10/5/5 12/7/7 14/9/9
f 14/9/9 12/7/7 15/10/10
f 10/5/5 14/9/9 16/11/11
f 10/5/5 16/11/11 17/12/12
f 18/13/13 10/5/5 17/12/12
f 13/8/8 10/5/5 18/13/13
f 18/13/13 17/12/12 19/14/14
f 18/13/13 19/14/14 20/15/15
f 21/16/16 20/15/15 19/14/14
f 21/16/16 19/14/14 22/17/17
f 23/18/18 24/19/19 25/20/20
f 26/21/21 9/4/4 6/1/1
f 6/1/1 21/16/16 26/21/21
f 9/4/4 26/21/21 23/18/18
f 23/18/18 26/21/21 24/19/19
f 14/22/9 23/18/18 25/20/20
f 14/22/9 25/20/20 16/23/11
f 20/15/15 21/16/16 27/24/22
f 18/13/13 20/15/15 28/25/23
f 18/13/13 28/25/23 13/8/8
f 20/15/15 27/24/22 28/25/23
f 28/25/23 29/26/24 13/8/8
f 15/27/10 23/18/18 14/22/9
f 15/27/10 7/2/2 30/28/25
f 15/27/10 30/28/25 23/18/18
f 9/4/4 23/18/18 30/28/25
f 30/28/25 7/2/2 9/4/4
f 28/25/23 31/29/26 29/26/24
f 27/24/22 31/29/26 28/25/23
f 27/24/22 32/30/27 31/29/26
f 27/24/22 21/16/16 33/31/28
f 6/1/1 33/31/28 21/16/16
f 27/24/22 33/31/28 32/30/27
f 22/17/17 24/19/19 26/21/21
f 22/17/17 26/21/21 21/16/16
f 29/26/24 11/6/6 13/8/8
f 8/3/3 32/30/27 33/31/28
f 8/3/3 33/31/28 6/1/1
f 35/32/29 15/10/10 12/7/7
f 35/32/29 7/33/2 15/10/10
f 36/34/30 12/7/7 11/6/6
f 36/34/30 35/32/29 12/7/7
f 29/26/24 37/35/31 11/6/6
f 36/34/30 11/6/6 37/35/31
f 16/11/11 34/36/32 17/12/12
f 34/36/32 19/14/14 17/12/12
f 4/37/33 22/17/17 19/14/14
f 34/36/32 4/37/33 19/14/14
f 4/37/33 3/38/34 22/17/17
f 5/39/35 22/17/17 3/38/34
f 5/39/35 24/19/19 22/17/17
f 2/40/36 24/19/19 5/39/35
f 2/40/36 25/20/20 24/19/19
f 25/20/20 1/41/37 16/23/11
f 25/20/20 2/40/36 1/41/37
f 16/11/11 1/42/37 34/36/32
